<?xml version="1.0" standalone="no"?><!DOCTYPE svg PUBLIC "-//W3C//DTD SVG 1.1//EN" "http://www.w3.org/Graphics/SVG/1.1/DTD/svg11.dtd"><svg t="1719041016163" class="icon" viewBox="0 0 1024 1024" version="1.1" xmlns="http://www.w3.org/2000/svg" p-id="11711" xmlns:xlink="http://www.w3.org/1999/xlink" width="200" height="200"><path d="M555.072 128h42.688v42.688h-42.688zM427.072 170.688h42.688v42.688h-42.688z" fill="#6DB249" p-id="11712"></path><path d="M469.696 170.688H512.384v42.688h-42.688z" fill="#6DB249" p-id="11713"></path><path d="M469.696 213.312H512.384V256h-42.688zM512.384 170.688h42.688v42.688H512.384z" fill="#6DB249" p-id="11714"></path><path d="M512.384 213.312h42.688V256H512.384zM555.072 170.688h42.688v42.688h-42.688z" fill="#6DB249" p-id="11715"></path><path d="M555.072 213.312h42.688V256h-42.688zM597.696 170.688H640.384v42.624h-42.688zM640.384 85.312h42.688V128H640.384zM512.384 128h42.688v42.688H512.384zM597.696 128H640.384v42.688h-42.688zM640.384 128h42.688v42.688H640.384z" fill="#6DB249" p-id="11716"></path><path d="M683.072 384h42.688v42.688h-42.688zM683.072 426.688h42.688v42.688h-42.688z" fill="#E60012" p-id="11717"></path><path d="M683.072 469.312h42.688V512h-42.688zM725.696 384H768.384v42.688h-42.688z" fill="#E60012" p-id="11718"></path><path d="M725.696 426.688H768.384v42.688h-42.688z" fill="#E60012" p-id="11719"></path><path d="M725.696 469.312H768.384V512h-42.688zM683.072 512h42.688v42.688h-42.688z" fill="#E60012" p-id="11720"></path><path d="M725.696 512H768.384v42.688h-42.688zM597.696 384H640.384v42.688h-42.688zM597.696 426.688H640.384v42.688h-42.688z" fill="#E60012" p-id="11721"></path><path d="M597.696 469.312H640.384V512h-42.688zM597.696 512H640.384v42.688h-42.688zM640.384 384h42.688v42.688H640.384zM640.384 426.688h42.688v42.688H640.384z" fill="#E60012" p-id="11722"></path><path d="M640.384 469.312h42.688V512H640.384zM640.384 512h42.688v42.688H640.384z" fill="#E60012" p-id="11723"></path><path d="M853.696 213.312H896.384V256h-42.688zM853.696 256H896.384v42.688h-42.688zM896.384 256h42.688v42.688H896.384zM896.384 298.688h42.688v42.688H896.384zM896.384 128h42.688v42.688H896.384z" fill="#ED6C00" p-id="11724"></path><path d="M939.008 128h42.688v42.688h-42.688zM896.384 170.688h42.688v42.688H896.384z" fill="#ED6C00" p-id="11725"></path><path d="M939.008 170.688h42.688v42.688h-42.688zM853.696 170.688H896.384v42.688h-42.688z" fill="#ED6C00" p-id="11726"></path><path d="M896.384 213.312h42.688V256H896.384z" fill="#ED6C00" p-id="11727"></path><path d="M128.384 256h42.688v42.688H128.384zM171.072 256h42.688v42.688h-42.688z" fill="#D64216" p-id="11728"></path><path d="M213.696 256H256.384v42.688h-42.688zM171.072 298.688h42.688v42.688h-42.688z" fill="#D64216" p-id="11729"></path><path d="M213.696 298.688H256.384v42.688h-42.688zM256.384 298.688h42.688v42.688H256.384zM725.696 768H768.384v42.688h-42.688zM768.384 810.688h42.688v42.688H768.384zM213.696 384H256.384v42.688h-42.688zM256.384 384h42.688v42.688H256.384zM299.072 384h42.688v42.688h-42.688z" fill="#D64216" p-id="11730"></path><path d="M341.696 384H384.384v42.688h-42.688zM256.384 426.688h42.688v42.688H256.384zM299.072 426.688h42.688v42.688h-42.688z" fill="#D64216" p-id="11731"></path><path d="M299.072 469.312h42.688V512h-42.688zM299.072 512h42.688v42.688h-42.688zM299.072 554.688h42.688v42.688h-42.688zM384.384 640h42.688v42.688H384.384zM427.072 640h42.688v42.688h-42.688z" fill="#D64216" p-id="11732"></path><path d="M469.696 640H512.384v42.688h-42.688zM512.384 640h42.688v42.688H512.384zM427.072 682.688h42.688v42.688h-42.688z" fill="#D64216" p-id="11733"></path><path d="M469.696 682.688H512.384v42.688h-42.688zM512.384 682.688h42.688v42.688H512.384zM555.072 682.688h42.688v42.688h-42.688z" fill="#D64216" p-id="11734"></path><path d="M469.696 725.312H512.384V768h-42.688zM512.384 725.312h42.688V768H512.384zM555.072 725.312h42.688V768h-42.688zM597.696 768H640.384v42.688h-42.688zM683.072 810.688h42.688v42.688h-42.688z" fill="#D64216" p-id="11735"></path><path d="M555.072 768h42.688v42.688h-42.688zM597.696 725.312H640.384V768h-42.688zM683.072 768h42.688v42.688h-42.688zM725.696 810.688H768.384v42.688h-42.688zM768.384 853.312h42.688V896H768.384zM213.696 341.312H256.384V384h-42.688zM256.384 341.312h42.688V384H256.384zM299.072 341.312h42.688V384h-42.688z" fill="#D64216" p-id="11736"></path><path d="M341.696 341.312H384.384V384h-42.688zM640.384 725.312h42.688V768H640.384zM640.384 768h42.688v42.688H640.384zM256.384 469.312h42.688V512H256.384zM341.696 554.688H384.384v42.688h-42.688z" fill="#D64216" p-id="11737"></path><path d="M341.696 597.312H384.384V640h-42.688zM384.384 597.312h42.688V640H384.384z" fill="#D64216" p-id="11738"></path><path d="M640.384 213.312h42.688V256H640.384zM256.384 213.312h42.688V256H256.384zM299.072 213.312h42.688V256h-42.688z" fill="#FBC600" p-id="11739"></path><path d="M341.696 213.312H384.384V256h-42.688zM384.384 213.312h42.688V256H384.384zM299.072 256h42.688v42.688h-42.688z" fill="#FBC600" p-id="11740"></path><path d="M341.696 256H384.384v42.688h-42.688zM384.384 256h42.688v42.688H384.384zM427.072 256h42.688v42.688h-42.688zM384.384 298.688h42.688v42.688H384.384zM427.072 298.688h42.688v42.688h-42.688z" fill="#FBC600" p-id="11741"></path><path d="M469.696 298.688H512.384v42.688h-42.688zM512.384 298.688h42.688v42.688H512.384zM555.072 298.688h42.688v42.688h-42.688zM597.696 256H640.384v42.688h-42.688z" fill="#FBC600" p-id="11742"></path><path d="M597.696 298.688H640.384v42.688h-42.688zM640.384 256h42.688v42.688H640.384zM683.072 213.312h42.624V256h-42.624zM683.072 170.688h42.688v42.624h-42.688z" fill="#FBC600" p-id="11743"></path><path d="M725.696 170.688H768.384v42.624h-42.688zM725.696 85.312H768.384V128h-42.688zM768.384 85.312h42.688V128H768.384zM683.072 298.688h42.688v42.688h-42.688zM725.696 256H768.384v42.688h-42.688z" fill="#FBC600" p-id="11744"></path><path d="M725.696 298.688H768.384v42.688h-42.688zM768.384 213.312h42.688V256H768.384zM768.384 256h42.688v42.688H768.384zM768.384 298.688h42.688v42.688H768.384zM811.072 298.688h42.688v42.688h-42.688zM683.072 597.312h42.688V640h-42.688z" fill="#FBC600" p-id="11745"></path><path d="M725.696 597.312H768.384V640h-42.688zM683.072 640h42.688v42.688h-42.688z" fill="#FBC600" p-id="11746"></path><path d="M725.696 640H768.384v42.688h-42.688zM768.384 554.688h42.688v42.688H768.384z" fill="#FBC600" p-id="11747"></path><path d="M768.384 597.312h42.688V640H768.384zM768.384 640h42.688v42.688H768.384zM683.072 682.688h42.688v42.688h-42.688z" fill="#FBC600" p-id="11748"></path><path d="M725.696 682.688H768.384v42.688h-42.688zM768.384 682.688h42.688v42.688H768.384z" fill="#FBC600" p-id="11749"></path><path d="M768.384 725.312h42.688V768H768.384zM811.072 384h42.688v42.688h-42.688zM811.072 426.688h42.688v42.688h-42.688z" fill="#FBC600" p-id="11750"></path><path d="M811.072 469.312h42.688V512h-42.688zM811.072 512h42.688v42.688h-42.688zM811.072 554.688h42.688v42.688h-42.688z" fill="#FBC600" p-id="11751"></path><path d="M811.072 597.312h42.688V640h-42.688zM811.072 640h42.688v42.688h-42.688zM811.072 682.688h42.688v42.688h-42.688zM853.696 384H896.384v42.688h-42.688zM853.696 426.688H896.384v42.688h-42.688z" fill="#FBC600" p-id="11752"></path><path d="M853.696 469.312H896.384V512h-42.688zM896.384 384h42.688v42.688H896.384zM853.696 512H896.384v42.688h-42.688zM853.696 554.688H896.384v42.688h-42.688zM427.072 384h42.688v42.688h-42.688z" fill="#FBC600" p-id="11753"></path><path d="M469.696 384H512.384v42.688h-42.688zM384.384 426.688h42.688v42.688H384.384zM427.072 426.688h42.688v42.688h-42.688z" fill="#FBC600" p-id="11754"></path><path d="M469.696 426.688H512.384v42.688h-42.688zM384.384 469.312h42.688V512H384.384z" fill="#FBC600" p-id="11755"></path><path d="M427.072 469.312h42.688V512h-42.688zM512.384 384h42.688v42.688H512.384zM512.384 426.688h42.688v42.688H512.384z" fill="#FBC600" p-id="11756"></path><path d="M512.384 469.312h42.688V512H512.384zM384.384 512h42.688v42.688H384.384zM427.072 512h42.688v42.688h-42.688zM427.072 554.688h42.688v42.688h-42.688zM512.384 554.688h42.688v42.688H512.384zM597.696 597.312H640.384V640h-42.688zM597.696 640H640.384v42.688h-42.688zM427.072 341.312h42.688V384h-42.688z" fill="#FBC600" p-id="11757"></path><path d="M469.696 341.312H512.384V384h-42.688zM512.384 341.312h42.688V384H512.384zM555.072 341.312h42.688V384h-42.688zM640.384 298.688h42.688v42.688H640.384zM640.384 597.312h42.688V640H640.384zM640.384 640h42.688v42.688H640.384zM683.072 256h42.688v42.688h-42.688zM725.696 128H768.384v42.688h-42.688zM725.696 213.312H768.384V256h-42.688zM853.696 42.688H896.384v42.688h-42.688zM896.384 42.688h42.688v42.688H896.384z" fill="#FBC600" p-id="11758"></path><path d="M939.008 42.688h42.688v42.688h-42.688zM853.696 85.312H896.384V128h-42.688zM768.384 128h42.688v42.688H768.384zM768.384 170.688h42.688v42.688H768.384zM768.384 341.312h42.688V384H768.384z" fill="#FBC600" p-id="11759"></path><path d="M811.072 42.688h42.688v42.688h-42.688z" fill="#FBC600" p-id="11760"></path><path d="M811.072 85.312h42.688V128h-42.688zM811.072 128h42.688v42.688h-42.688zM811.072 341.312h42.688V384h-42.688z" fill="#FBC600" p-id="11761"></path><path d="M853.696 341.312H896.384V384h-42.688zM469.696 469.312H512.384V512h-42.688zM469.696 512H512.384v42.688h-42.688zM512.384 512h42.688v42.688H512.384zM469.696 554.688H512.384v42.688h-42.688zM555.072 554.688h42.688v42.688h-42.688z" fill="#FBC600" p-id="11762"></path><path d="M555.072 597.312h42.688V640h-42.688z" fill="#FBC600" p-id="11763"></path><path d="M43.072 298.688h42.688v42.688H43.072z" fill="#E59743" p-id="11764"></path><path d="M85.696 298.688H128.384v42.688h-42.688zM43.072 384h42.688v42.688H43.072z" fill="#E59743" p-id="11765"></path><path d="M85.696 384H128.384v42.688h-42.688zM128.384 384h42.688v42.688H128.384zM85.696 426.688H128.384v42.688h-42.688zM128.384 426.688h42.688v42.688H128.384zM171.072 426.688h42.688v42.688h-42.688zM213.696 512H256.384v42.688h-42.688zM128.384 554.688h42.688v42.688H128.384zM213.696 554.688H256.384v42.688h-42.688z" fill="#E59743" p-id="11766"></path><path d="M213.696 597.312H256.384V640h-42.688zM171.072 640h42.688v42.688h-42.688z" fill="#E59743" p-id="11767"></path><path d="M213.696 640H256.384v42.688h-42.688zM256.384 640h42.688v42.688H256.384zM299.072 640h42.688v42.688h-42.688zM213.696 682.688H256.384v42.688h-42.688z" fill="#E59743" p-id="11768"></path><path d="M255.296 682.688h42.688v42.688h-42.688zM297.984 682.688h42.688v42.688H297.984z" fill="#E59743" p-id="11769"></path><path d="M340.608 682.688h42.688v42.688h-42.688z" fill="#E59743" p-id="11770"></path><path d="M340.608 725.312h42.688V768h-42.688zM383.296 725.312h42.688V768h-42.688zM383.296 768h42.688v42.688h-42.688zM425.984 768h42.688v42.688H425.984zM425.984 810.688h42.688v42.688H425.984z" fill="#E59743" p-id="11771"></path><path d="M468.608 810.688h42.688v42.688h-42.688zM297.984 768h42.688v42.688H297.984zM340.608 810.688h42.688v42.688h-42.688zM383.296 853.312h42.688V896h-42.688zM511.296 853.312h42.688V896h-42.688zM553.984 853.312h42.688V896H553.984z" fill="#E59743" p-id="11772"></path><path d="M596.608 853.312h42.688V896h-42.688zM468.608 896h42.688v42.688h-42.688zM511.296 896h42.688v42.688h-42.688zM553.984 896h42.688v42.688H553.984z" fill="#E59743" p-id="11773"></path><path d="M596.608 896h42.688v42.688h-42.688zM596.608 938.688h42.688v42.688h-42.688zM681.984 896h42.688v42.688h-42.688zM681.984 938.688h42.688v42.688h-42.688z" fill="#E59743" p-id="11774"></path><path d="M724.608 896h42.688v42.688h-42.688zM724.608 938.688h42.688v42.688h-42.688zM511.296 810.688h42.688v42.688h-42.688zM425.984 853.312h42.688V896H425.984z" fill="#E59743" p-id="11775"></path><path d="M468.608 853.312h42.688V896h-42.688zM43.072 341.312h42.688V384H43.072z" fill="#E59743" p-id="11776"></path><path d="M85.696 341.312H128.384V384h-42.688zM128.384 341.312h42.688V384H128.384zM639.296 852.992h42.688v42.688h-42.688zM639.296 896h42.688v42.688h-42.688zM639.296 938.688h42.688v42.688h-42.688zM85.696 469.312H128.384V512h-42.688zM128.384 469.312h42.688V512H128.384zM171.072 469.312h42.688V512h-42.688zM128.384 512h42.688v42.688H128.384zM171.072 512h42.688v42.688h-42.688zM171.072 554.688h42.688v42.688h-42.688z" fill="#E59743" p-id="11777"></path><path d="M171.072 597.312h42.688V640h-42.688zM256.384 597.312h42.688V640H256.384zM255.296 725.312h42.688V768h-42.688zM297.984 725.312h42.688V768H297.984zM340.608 768h42.688v42.688h-42.688zM383.296 810.688h42.688v42.688h-42.688z" fill="#E59743" p-id="11778"></path><path d="M256 171.008h42.688v42.688h-42.688zM298.688 171.008h42.688v42.688h-42.688zM341.376 171.008h42.688v42.688h-42.688zM128 213.696h42.688v42.688h-42.688zM170.688 213.696h42.688v42.688h-42.688zM213.376 213.696h42.688v42.688h-42.688zM85.376 256.384h42.688v42.688h-42.688zM128.384 298.304h42.688v42.688H128.384zM512.384 85.312h42.688V128H512.384zM555.072 85.312h42.688V128h-42.688z" p-id="11779"></path><path d="M597.696 85.312H640.384V128h-42.688zM640.384 42.688h42.688v42.688H640.384zM683.072 42.688h42.688v42.688h-42.688z" p-id="11780"></path><path d="M725.696 42.688H768.384v42.688h-42.688zM768.384 42.688h42.688v42.688H768.384zM939.072 298.688h42.688v42.688h-42.688zM811.072 725.312h42.688V768h-42.688zM811.072 768h42.688v42.688h-42.688zM811.072 810.688h42.688v42.688h-42.688zM896.384 426.688h42.688v42.688H896.384z" p-id="11781"></path><path d="M896.384 469.312h42.688V512H896.384zM896.384 512h42.688v42.688H896.384zM939.072 384h42.688v42.688h-42.688zM853.696 597.312H896.384V640h-42.688zM896.384 554.688h42.688v42.688H896.384zM853.696 640H896.384v42.688h-42.688zM853.696 682.688H896.384v42.688h-42.688zM42.688 427.008h42.688v42.688H42.688zM213.696 426.304H256.384v42.688h-42.688zM42.688 469.696h42.688v42.688H42.688zM213.696 468.992H256.384v42.688h-42.688zM128 597.696h42.688v42.688h-42.688zM299.072 596.992h42.688v42.688h-42.688zM128 640.384h42.688v42.688h-42.688z" p-id="11782"></path><path d="M341.696 639.616H384.384v42.688h-42.688zM170.688 683.008h42.688v42.688h-42.688zM384.384 682.304h42.688v42.688H384.384zM427.072 724.992h42.688v42.688h-42.688z" p-id="11783"></path><path d="M469.696 767.616H512.384v42.688h-42.688zM512.384 767.616h42.688v42.688H512.384zM256 768.384h42.688v42.688h-42.688zM298.688 811.008h42.688v42.688h-42.688zM555.072 810.304h42.688v42.688h-42.688z" p-id="11784"></path><path d="M597.696 810.304H640.384v42.688h-42.688zM341.376 853.696h42.688v42.688h-42.688zM384 896.384h42.688v42.688h-42.688zM426.688 896.384h42.688v42.688h-42.688zM469.376 939.008h42.688v42.688h-42.688zM512.384 938.688h42.688v42.688H512.384z" p-id="11785"></path><path d="M554.688 939.008h42.688v42.688h-42.688zM683.072 853.312h42.688V896h-42.688z" p-id="11786"></path><path d="M725.696 853.312H768.384V896h-42.688zM768.384 896h42.688v42.688H768.384zM768.384 938.688h42.688v42.688H768.384zM811.072 853.312h42.688V896h-42.688zM384 128.384h42.688v42.688h-42.688zM426.688 128.384h42.688v42.688h-42.688zM469.376 128.384h42.688v42.688h-42.688zM42.688 256.384h42.688v42.688H42.688zM0 299.008h42.688v42.688H0zM0 341.696h42.688v42.688H0zM171.072 340.992h42.688v42.688h-42.688zM0 384.384h42.688v42.688H0zM811.072 0h42.688v42.688h-42.688z" p-id="11787"></path><path d="M853.696 0H896.384v42.688h-42.688zM896.384 0h42.688v42.688H896.384z" p-id="11788"></path><path d="M939.008 0h42.688v42.688h-42.688zM981.696 42.688H1024.384v42.688h-42.688z" p-id="11789"></path><path d="M981.696 85.312H1024.384V128h-42.688zM981.696 128H1024.384v42.688h-42.688zM981.696 170.688H1024.384v42.688h-42.688zM939.008 213.312h42.688V256h-42.688zM640.384 810.688h42.688v42.688H640.384zM939.072 256h42.688v42.688h-42.688zM939.072 341.312h42.688V384h-42.688zM597.696 981.312H640.384V1024h-42.688zM640.384 981.312h42.688V1024H640.384zM683.072 981.312h42.688V1024h-42.688z" p-id="11790"></path><path d="M725.696 981.312H768.384V1024h-42.688zM85.376 512.384h42.688v42.688h-42.688zM256.384 511.616h42.688v42.688H256.384z" p-id="11791"></path><path d="M85.376 555.008h42.688v42.688h-42.688zM256.384 554.304h42.688v42.688H256.384zM213.376 725.696h42.688v42.688h-42.688zM171.072 383.616h42.688v42.688h-42.688zM384.384 170.688h42.688v42.688H384.384zM427.072 213.312h42.688V256h-42.688zM256.384 256h42.688v42.688H256.384zM469.696 256H512.384v42.688h-42.688zM299.072 298.688h42.688v42.688h-42.688z" p-id="11792"></path><path d="M341.696 298.688H384.384v42.688h-42.688zM512.384 256h42.688v42.688H512.384zM555.072 256h42.688v42.688h-42.688zM597.696 213.312H640.384V256h-42.688zM640.384 170.688h42.688v42.624H640.384zM683.072 85.312h42.688V128h-42.688zM811.072 170.688h42.688v42.688h-42.688z" p-id="11793"></path><path d="M811.072 213.312h42.688V256h-42.688zM811.072 256h42.688v42.688h-42.688zM853.696 298.688H896.384v42.688h-42.688zM768.384 384h42.688v42.688H768.384zM768.384 426.688h42.688v42.688H768.384z" p-id="11794"></path><path d="M768.384 469.312h42.688V512H768.384zM768.384 512h42.688v42.688H768.384zM683.072 554.688h42.688v42.688h-42.688z" p-id="11795"></path><path d="M725.696 554.688H768.384v42.688h-42.688zM683.072 725.312h42.688V768h-42.688z" p-id="11796"></path><path d="M725.696 725.312H768.384V768h-42.688zM768.384 768h42.688v42.688H768.384zM384.384 384h42.688v42.688H384.384zM341.696 426.688H384.384v42.688h-42.688zM555.072 384h42.688v42.688h-42.688zM555.072 426.688h42.688v42.688h-42.688zM555.072 512h42.688v42.688h-42.688zM384.384 554.688h42.688v42.688H384.384zM427.072 597.312h42.688V640h-42.688zM512.384 597.312h42.688V640H512.384zM597.696 554.688H640.384v42.688h-42.688zM555.072 640h42.688v42.688h-42.688zM597.696 682.688H640.384v42.688h-42.688zM384.384 341.312h42.688V384H384.384zM597.696 341.312H640.384V384h-42.688zM640.384 341.312h42.688V384H640.384zM640.384 554.688h42.688v42.688H640.384zM683.072 128h42.688v42.688h-42.688zM683.072 341.312h42.688V384h-42.688z" p-id="11797"></path><path d="M725.696 341.312H768.384V384h-42.688zM896.384 85.312h42.688V128H896.384z" p-id="11798"></path><path d="M939.008 85.312h42.688V128h-42.688zM853.696 128H896.384v42.688h-42.688zM640.384 682.688h42.688v42.688H640.384zM896.384 341.312h42.688V384H896.384zM341.696 469.312H384.384V512h-42.688zM341.696 512H384.384v42.688h-42.688zM555.072 469.312h42.688V512h-42.688zM469.696 597.312H512.384V640h-42.688z" p-id="11799"></path></svg>